<svg xmlns="http://www.w3.org/2000/svg" width="412.5" viewBox="0 0 412.5 45" height="45" version="1.0"><defs><clipPath id="a"><path d="M 352 10 L 381 10 L 381 44.972656 L 352 44.972656 Z M 352 10"/></clipPath><clipPath id="b"><path d="M 1 0.0273438 L 14 0.0273438 L 14 35 L 1 35 Z M 1 0.0273438"/></clipPath><clipPath id="c"><path d="M 284 0.0273438 L 297 0.0273438 L 297 35 L 284 35 Z M 284 0.0273438"/></clipPath><clipPath id="d"><path d="M 312 0.0273438 L 325 0.0273438 L 325 35 L 312 35 Z M 312 0.0273438"/></clipPath><clipPath id="e"><path d="M 350 8 L 379 8 L 379 44.972656 L 350 44.972656 Z M 350 8"/></clipPath></defs><g fill="#010100" fill-opacity=".4"><g><g><path d="M 0 0 L 4.605469 -26.332031 L 10.570312 -26.332031 L 5.960938 0 Z M 5.960938 -33.875 L 4.96875 -28.273438 L 11.246094 -30.078125 L 11.921875 -33.875 Z M 5.960938 -33.875" transform="translate(3.326 36.422)"/></g></g></g><g fill="#010100" fill-opacity=".4"><g><g><path d="M 26.601562 -10.117188 C 27.371094 -14.589844 24.390625 -18.246094 19.917969 -18.246094 L 11.425781 -18.246094 C 10.207031 -18.246094 9.347656 -19.242188 9.574219 -20.503906 L 9.847656 -22.222656 C 10.070312 -23.484375 11.292969 -24.480469 12.511719 -24.480469 L 25.066406 -24.480469 L 27.957031 -30.488281 L 13.503906 -30.488281 C 9.03125 -30.488281 4.695312 -26.828125 3.929688 -22.355469 L 3.566406 -20.371094 C 2.800781 -15.898438 5.78125 -12.238281 10.253906 -12.238281 L 18.699219 -12.238281 C 19.964844 -12.238281 20.777344 -11.246094 20.550781 -9.980469 L 20.277344 -8.21875 C 20.054688 -7 18.878906 -5.960938 17.613281 -5.960938 L 2.84375 -5.960938 L 0 0 L 16.710938 0 C 21.183594 0 25.472656 -3.660156 26.242188 -8.128906 Z M 26.601562 -10.117188" transform="translate(13.578 36.422)"/></g></g></g><g fill="#010100" fill-opacity=".4"><g><g><path d="M 27.503906 -20.324219 C 28.09375 -23.667969 25.878906 -26.332031 22.539062 -26.332031 L 13.59375 -26.332031 L 10.070312 -23.351562 L 10.570312 -26.332031 L 4.605469 -26.332031 L -1.355469 7.542969 L 4.605469 7.542969 L 9.53125 -20.324219 L 20.324219 -20.324219 C 21 -20.324219 21.410156 -19.828125 21.273438 -19.148438 L 19.195312 -7.179688 C 19.058594 -6.503906 18.472656 -5.960938 17.796875 -5.960938 L 8.851562 -5.960938 L 9.621094 0 L 17.929688 0 C 21.273438 0 24.390625 -2.664062 24.976562 -5.960938 Z M 27.503906 -20.324219" transform="translate(41.58 36.422)"/></g></g></g><g fill="#010100" fill-opacity=".4"><g><g><path d="M 22.539062 -26.332031 L 10.570312 -26.332031 C 7.273438 -26.332031 4.15625 -23.667969 3.566406 -20.324219 L 1.039062 -5.960938 C 0.453125 -2.664062 2.664062 0 5.960938 0 L 17.929688 0 C 21.273438 0 24.390625 -2.664062 24.976562 -5.960938 L 27.503906 -20.324219 C 28.09375 -23.667969 25.878906 -26.332031 22.539062 -26.332031 Z M 19.195312 -7.179688 C 19.058594 -6.503906 18.472656 -5.960938 17.796875 -5.960938 L 8.21875 -5.960938 C 7.542969 -5.960938 7.089844 -6.503906 7.226562 -7.179688 L 9.304688 -19.148438 C 9.441406 -19.828125 10.070312 -20.324219 10.75 -20.324219 L 20.324219 -20.324219 C 21 -20.324219 21.410156 -19.828125 21.273438 -19.148438 Z M 19.195312 -7.179688" transform="translate(69.807 36.422)"/></g></g></g><g fill="#010100" fill-opacity=".4"><g><g><path d="M 18.832031 -26.332031 L 13.59375 -26.332031 L 10.070312 -23.351562 L 10.570312 -26.332031 L 4.605469 -26.332031 L 0 0 L 5.960938 0 L 9.304688 -19.148438 C 9.441406 -19.828125 10.070312 -20.324219 10.75 -20.324219 L 16.035156 -20.324219 Z M 18.832031 -26.332031" transform="translate(98.035 36.422)"/></g></g></g><g fill="#010100" fill-opacity=".4"><g><g><path d="M 8.21875 -5.960938 C 7.542969 -5.960938 7.089844 -6.503906 7.226562 -7.179688 L 9.53125 -20.324219 L 16.167969 -20.324219 L 19.015625 -26.332031 L 10.570312 -26.332031 L 11.652344 -32.292969 L 5.691406 -32.292969 L 1.039062 -5.960938 C 0.453125 -2.664062 2.664062 0 5.960938 0 L 14.40625 0 L 15.445312 -5.960938 Z M 8.21875 -5.960938" transform="translate(114.971 36.422)"/></g></g></g><g fill="#010100" fill-opacity=".4"><g><g><path d="M 25.699219 -10.164062 C 26.285156 -13.460938 24.117188 -16.167969 20.777344 -16.167969 L 10.027344 -16.167969 C 9.347656 -16.167969 8.898438 -16.710938 8.988281 -17.34375 L 9.304688 -19.148438 C 9.441406 -19.828125 10.070312 -20.324219 10.75 -20.324219 L 23.890625 -20.324219 L 26.738281 -26.332031 L 10.570312 -26.332031 C 7.273438 -26.332031 4.15625 -23.667969 3.566406 -20.324219 L 2.84375 -16.167969 C 2.257812 -12.871094 4.425781 -10.164062 7.722656 -10.164062 L 18.519531 -10.164062 C 19.195312 -10.164062 19.601562 -9.621094 19.511719 -8.988281 L 19.195312 -7.179688 C 19.058594 -6.503906 18.472656 -5.960938 17.796875 -5.960938 L 2.84375 -5.960938 L 0 0 L 17.929688 0 C 21.273438 0 24.390625 -2.664062 24.976562 -5.960938 Z M 25.699219 -10.164062" transform="translate(132.992 36.422)"/></g></g></g><g fill="#010100" fill-opacity=".4"><g><g><path d="M 27.867188 -17.296875 L 27.867188 -17.164062 C 27.867188 -17.207031 27.867188 -17.253906 27.867188 -17.296875 Z M 28.769531 -22.492188 L 28.769531 -22.355469 C 28.769531 -22.402344 28.769531 -22.445312 28.769531 -22.492188 Z M 25.789062 0 L 21.769531 -9.890625 C 24.796875 -11.15625 27.234375 -13.957031 27.867188 -17.164062 C 27.867188 -17.207031 27.867188 -17.253906 27.867188 -17.296875 L 28.769531 -22.355469 C 28.769531 -22.402344 28.769531 -22.445312 28.769531 -22.492188 C 29.492188 -26.917969 26.511719 -30.488281 22.085938 -30.488281 L 5.375 -30.488281 L 0 0 L 5.960938 0 L 10.253906 -24.480469 L 20.867188 -24.480469 C 22.128906 -24.480469 22.945312 -23.484375 22.71875 -22.222656 L 21.90625 -17.433594 C 21.679688 -16.167969 20.503906 -15.175781 19.242188 -15.175781 L 12.78125 -15.175781 L 9.890625 -9.167969 L 15.175781 -9.167969 L 18.878906 0 Z M 25.789062 0" transform="translate(160.993 36.422)"/></g></g></g><g fill="#010100" fill-opacity=".4"><g><g><path d="M 20.777344 -16.167969 L 13.640625 -16.167969 L 10.75 -10.164062 L 25.699219 -10.164062 L 27.503906 -20.324219 C 28.09375 -23.667969 25.878906 -26.332031 22.539062 -26.332031 L 10.570312 -26.332031 C 7.273438 -26.332031 4.15625 -23.667969 3.566406 -20.324219 L 1.039062 -5.960938 C 0.453125 -2.664062 2.664062 0 5.960938 0 L 20.957031 0 L 23.757812 -5.960938 L 8.21875 -5.960938 C 7.542969 -5.960938 7.089844 -6.503906 7.226562 -7.179688 L 9.304688 -19.148438 C 9.441406 -19.828125 10.070312 -20.324219 10.75 -20.324219 L 20.324219 -20.324219 C 21 -20.324219 21.410156 -19.828125 21.273438 -19.148438 Z M 20.777344 -16.167969" transform="translate(190.395 36.422)"/></g></g></g><g fill="#010100" fill-opacity=".4"><g><g><path d="M 20.910156 -5.960938 L 8.21875 -5.960938 C 7.542969 -5.960938 7.089844 -6.503906 7.226562 -7.179688 L 9.304688 -19.148438 C 9.441406 -19.828125 10.070312 -20.324219 10.75 -20.324219 L 21.632812 -20.324219 L 24.480469 -26.332031 L 10.570312 -26.332031 C 7.273438 -26.332031 4.15625 -23.667969 3.566406 -20.324219 L 1.039062 -5.960938 C 0.453125 -2.664062 2.664062 0 5.960938 0 L 19.871094 0 Z M 20.910156 -5.960938" transform="translate(218.623 36.422)"/></g></g></g><g fill="#010100" fill-opacity=".4"><g><g><path d="M 18.832031 -26.332031 L 13.59375 -26.332031 L 10.070312 -23.351562 L 10.570312 -26.332031 L 4.605469 -26.332031 L 0 0 L 5.960938 0 L 9.304688 -19.148438 C 9.441406 -19.828125 10.070312 -20.324219 10.75 -20.324219 L 16.035156 -20.324219 Z M 18.832031 -26.332031" transform="translate(242.56 36.422)"/></g></g></g><g fill="#010100" fill-opacity=".4"><g><g><path d="M 21.183594 -26.332031 L 17.839844 -7.179688 C 17.703125 -6.503906 17.117188 -5.960938 16.441406 -5.960938 L 8.21875 -5.960938 C 7.542969 -5.960938 7.089844 -6.503906 7.226562 -7.179688 L 10.570312 -26.332031 L 4.605469 -26.332031 L 1.039062 -5.960938 C 0.453125 -2.664062 2.664062 0 5.960938 0 L 16.574219 0 C 19.917969 0 23.035156 -2.664062 23.621094 -5.960938 L 27.1875 -26.332031 Z M 21.183594 -26.332031" transform="translate(259.496 36.422)"/></g></g></g><g fill="#010100" fill-opacity=".4"><g><g><path d="M 0 0 L 4.605469 -26.332031 L 10.570312 -26.332031 L 5.960938 0 Z M 5.960938 -33.875 L 4.96875 -28.273438 L 11.246094 -30.078125 L 11.921875 -33.875 Z M 5.960938 -33.875" transform="translate(286.369 36.422)"/></g></g></g><g fill="#010100" fill-opacity=".4"><g><g><path d="M 8.21875 -5.960938 C 7.542969 -5.960938 7.089844 -6.503906 7.226562 -7.179688 L 9.53125 -20.324219 L 16.167969 -20.324219 L 19.015625 -26.332031 L 10.570312 -26.332031 L 11.652344 -32.292969 L 5.691406 -32.292969 L 1.039062 -5.960938 C 0.453125 -2.664062 2.664062 0 5.960938 0 L 14.40625 0 L 15.445312 -5.960938 Z M 8.21875 -5.960938" transform="translate(296.621 36.422)"/></g></g></g><g fill="#010100" fill-opacity=".4"><g><g><path d="M 0 0 L 4.605469 -26.332031 L 10.570312 -26.332031 L 5.960938 0 Z M 5.960938 -33.875 L 4.96875 -28.273438 L 11.246094 -30.078125 L 11.921875 -33.875 Z M 5.960938 -33.875" transform="translate(314.642 36.422)"/></g></g></g><g fill="#010100" fill-opacity=".4"><g><g><path d="M 26.152344 -20.324219 C 26.738281 -23.667969 24.523438 -26.332031 21.183594 -26.332031 L 13.59375 -26.332031 L 10.070312 -23.351562 L 10.570312 -26.332031 L 4.605469 -26.332031 L 0 0 L 5.960938 0 L 9.53125 -20.324219 L 18.96875 -20.324219 C 19.648438 -20.324219 20.054688 -19.828125 19.917969 -19.148438 L 16.574219 0 L 22.582031 0 Z M 26.152344 -20.324219" transform="translate(324.894 36.422)"/></g></g></g><g clip-path="url(#a)"><g fill="#010100" fill-opacity=".4"><g><g><path d="M 28.542969 -26.332031 L 22.539062 -26.332031 L 22.039062 -23.351562 L 19.554688 -26.332031 L 10.570312 -26.332031 C 7.273438 -26.332031 4.15625 -23.667969 3.566406 -20.324219 L 1.039062 -5.960938 C 0.453125 -2.664062 2.664062 0 5.960938 0 L 14.316406 0 L 17.164062 -5.960938 L 8.21875 -5.960938 C 7.542969 -5.960938 7.089844 -6.503906 7.226562 -7.179688 L 9.304688 -19.148438 C 9.441406 -19.828125 10.070312 -20.324219 10.75 -20.324219 L 21.5 -20.324219 L 18.699219 -4.5625 C 18.292969 -2.304688 17.296875 -0.136719 15.761719 1.714844 L 11.652344 5.734375 L 15.175781 9.980469 L 19.738281 5.464844 L 19.871094 5.328125 L 19.964844 5.195312 C 22.492188 2.304688 24.117188 -1.039062 24.707031 -4.5625 Z M 28.542969 -26.332031" transform="translate(351.767 36.422)"/></g></g></g></g><g clip-path="url(#b)"><g fill="#FFF"><g><g><path d="M 0 0 L 4.605469 -26.332031 L 10.570312 -26.332031 L 5.960938 0 Z M 5.960938 -33.875 L 4.96875 -28.273438 L 11.246094 -30.078125 L 11.921875 -33.875 Z M 5.960938 -33.875" transform="translate(1.33 34.425)"/></g></g></g></g><g fill="#FFF"><g><g><path d="M 26.601562 -10.117188 C 27.371094 -14.589844 24.390625 -18.246094 19.917969 -18.246094 L 11.425781 -18.246094 C 10.207031 -18.246094 9.347656 -19.242188 9.574219 -20.503906 L 9.847656 -22.222656 C 10.070312 -23.484375 11.292969 -24.480469 12.511719 -24.480469 L 25.066406 -24.480469 L 27.957031 -30.488281 L 13.503906 -30.488281 C 9.03125 -30.488281 4.695312 -26.828125 3.929688 -22.355469 L 3.566406 -20.371094 C 2.800781 -15.898438 5.78125 -12.238281 10.253906 -12.238281 L 18.699219 -12.238281 C 19.964844 -12.238281 20.777344 -11.246094 20.550781 -9.980469 L 20.277344 -8.21875 C 20.054688 -7 18.878906 -5.960938 17.613281 -5.960938 L 2.84375 -5.960938 L 0 0 L 16.710938 0 C 21.183594 0 25.472656 -3.660156 26.242188 -8.128906 Z M 26.601562 -10.117188" transform="translate(11.581 34.425)"/></g></g></g><g fill="#FFF"><g><g><path d="M 27.503906 -20.324219 C 28.09375 -23.667969 25.878906 -26.332031 22.539062 -26.332031 L 13.59375 -26.332031 L 10.070312 -23.351562 L 10.570312 -26.332031 L 4.605469 -26.332031 L -1.355469 7.542969 L 4.605469 7.542969 L 9.53125 -20.324219 L 20.324219 -20.324219 C 21 -20.324219 21.410156 -19.828125 21.273438 -19.148438 L 19.195312 -7.179688 C 19.058594 -6.503906 18.472656 -5.960938 17.796875 -5.960938 L 8.851562 -5.960938 L 9.621094 0 L 17.929688 0 C 21.273438 0 24.390625 -2.664062 24.976562 -5.960938 Z M 27.503906 -20.324219" transform="translate(39.583 34.425)"/></g></g></g><g fill="#FFF"><g><g><path d="M 22.539062 -26.332031 L 10.570312 -26.332031 C 7.273438 -26.332031 4.15625 -23.667969 3.566406 -20.324219 L 1.039062 -5.960938 C 0.453125 -2.664062 2.664062 0 5.960938 0 L 17.929688 0 C 21.273438 0 24.390625 -2.664062 24.976562 -5.960938 L 27.503906 -20.324219 C 28.09375 -23.667969 25.878906 -26.332031 22.539062 -26.332031 Z M 19.195312 -7.179688 C 19.058594 -6.503906 18.472656 -5.960938 17.796875 -5.960938 L 8.21875 -5.960938 C 7.542969 -5.960938 7.089844 -6.503906 7.226562 -7.179688 L 9.304688 -19.148438 C 9.441406 -19.828125 10.070312 -20.324219 10.75 -20.324219 L 20.324219 -20.324219 C 21 -20.324219 21.410156 -19.828125 21.273438 -19.148438 Z M 19.195312 -7.179688" transform="translate(67.81 34.425)"/></g></g></g><g fill="#FFF"><g><g><path d="M 18.832031 -26.332031 L 13.59375 -26.332031 L 10.070312 -23.351562 L 10.570312 -26.332031 L 4.605469 -26.332031 L 0 0 L 5.960938 0 L 9.304688 -19.148438 C 9.441406 -19.828125 10.070312 -20.324219 10.75 -20.324219 L 16.035156 -20.324219 Z M 18.832031 -26.332031" transform="translate(96.038 34.425)"/></g></g></g><g fill="#FFF"><g><g><path d="M 8.21875 -5.960938 C 7.542969 -5.960938 7.089844 -6.503906 7.226562 -7.179688 L 9.53125 -20.324219 L 16.167969 -20.324219 L 19.015625 -26.332031 L 10.570312 -26.332031 L 11.652344 -32.292969 L 5.691406 -32.292969 L 1.039062 -5.960938 C 0.453125 -2.664062 2.664062 0 5.960938 0 L 14.40625 0 L 15.445312 -5.960938 Z M 8.21875 -5.960938" transform="translate(112.975 34.425)"/></g></g></g><g fill="#FFF"><g><g><path d="M 25.699219 -10.164062 C 26.285156 -13.460938 24.117188 -16.167969 20.777344 -16.167969 L 10.027344 -16.167969 C 9.347656 -16.167969 8.898438 -16.710938 8.988281 -17.34375 L 9.304688 -19.148438 C 9.441406 -19.828125 10.070312 -20.324219 10.75 -20.324219 L 23.890625 -20.324219 L 26.738281 -26.332031 L 10.570312 -26.332031 C 7.273438 -26.332031 4.15625 -23.667969 3.566406 -20.324219 L 2.84375 -16.167969 C 2.257812 -12.871094 4.425781 -10.164062 7.722656 -10.164062 L 18.519531 -10.164062 C 19.195312 -10.164062 19.601562 -9.621094 19.511719 -8.988281 L 19.195312 -7.179688 C 19.058594 -6.503906 18.472656 -5.960938 17.796875 -5.960938 L 2.84375 -5.960938 L 0 0 L 17.929688 0 C 21.273438 0 24.390625 -2.664062 24.976562 -5.960938 Z M 25.699219 -10.164062" transform="translate(130.995 34.425)"/></g></g></g><g fill="#FFF"><g><g><path d="M 27.867188 -17.296875 L 27.867188 -17.164062 C 27.867188 -17.207031 27.867188 -17.253906 27.867188 -17.296875 Z M 28.769531 -22.492188 L 28.769531 -22.355469 C 28.769531 -22.402344 28.769531 -22.445312 28.769531 -22.492188 Z M 25.789062 0 L 21.769531 -9.890625 C 24.796875 -11.15625 27.234375 -13.957031 27.867188 -17.164062 C 27.867188 -17.207031 27.867188 -17.253906 27.867188 -17.296875 L 28.769531 -22.355469 C 28.769531 -22.402344 28.769531 -22.445312 28.769531 -22.492188 C 29.492188 -26.917969 26.511719 -30.488281 22.085938 -30.488281 L 5.375 -30.488281 L 0 0 L 5.960938 0 L 10.253906 -24.480469 L 20.867188 -24.480469 C 22.128906 -24.480469 22.945312 -23.484375 22.71875 -22.222656 L 21.90625 -17.433594 C 21.679688 -16.167969 20.503906 -15.175781 19.242188 -15.175781 L 12.78125 -15.175781 L 9.890625 -9.167969 L 15.175781 -9.167969 L 18.878906 0 Z M 25.789062 0" transform="translate(158.997 34.425)"/></g></g></g><g fill="#FFF"><g><g><path d="M 20.777344 -16.167969 L 13.640625 -16.167969 L 10.75 -10.164062 L 25.699219 -10.164062 L 27.503906 -20.324219 C 28.09375 -23.667969 25.878906 -26.332031 22.539062 -26.332031 L 10.570312 -26.332031 C 7.273438 -26.332031 4.15625 -23.667969 3.566406 -20.324219 L 1.039062 -5.960938 C 0.453125 -2.664062 2.664062 0 5.960938 0 L 20.957031 0 L 23.757812 -5.960938 L 8.21875 -5.960938 C 7.542969 -5.960938 7.089844 -6.503906 7.226562 -7.179688 L 9.304688 -19.148438 C 9.441406 -19.828125 10.070312 -20.324219 10.75 -20.324219 L 20.324219 -20.324219 C 21 -20.324219 21.410156 -19.828125 21.273438 -19.148438 Z M 20.777344 -16.167969" transform="translate(188.399 34.425)"/></g></g></g><g fill="#FFF"><g><g><path d="M 20.910156 -5.960938 L 8.21875 -5.960938 C 7.542969 -5.960938 7.089844 -6.503906 7.226562 -7.179688 L 9.304688 -19.148438 C 9.441406 -19.828125 10.070312 -20.324219 10.75 -20.324219 L 21.632812 -20.324219 L 24.480469 -26.332031 L 10.570312 -26.332031 C 7.273438 -26.332031 4.15625 -23.667969 3.566406 -20.324219 L 1.039062 -5.960938 C 0.453125 -2.664062 2.664062 0 5.960938 0 L 19.871094 0 Z M 20.910156 -5.960938" transform="translate(216.627 34.425)"/></g></g></g><g fill="#FFF"><g><g><path d="M 18.832031 -26.332031 L 13.59375 -26.332031 L 10.070312 -23.351562 L 10.570312 -26.332031 L 4.605469 -26.332031 L 0 0 L 5.960938 0 L 9.304688 -19.148438 C 9.441406 -19.828125 10.070312 -20.324219 10.75 -20.324219 L 16.035156 -20.324219 Z M 18.832031 -26.332031" transform="translate(240.564 34.425)"/></g></g></g><g fill="#FFF"><g><g><path d="M 21.183594 -26.332031 L 17.839844 -7.179688 C 17.703125 -6.503906 17.117188 -5.960938 16.441406 -5.960938 L 8.21875 -5.960938 C 7.542969 -5.960938 7.089844 -6.503906 7.226562 -7.179688 L 10.570312 -26.332031 L 4.605469 -26.332031 L 1.039062 -5.960938 C 0.453125 -2.664062 2.664062 0 5.960938 0 L 16.574219 0 C 19.917969 0 23.035156 -2.664062 23.621094 -5.960938 L 27.1875 -26.332031 Z M 21.183594 -26.332031" transform="translate(257.5 34.425)"/></g></g></g><g clip-path="url(#c)"><g fill="#FFF"><g><g><path d="M 0 0 L 4.605469 -26.332031 L 10.570312 -26.332031 L 5.960938 0 Z M 5.960938 -33.875 L 4.96875 -28.273438 L 11.246094 -30.078125 L 11.921875 -33.875 Z M 5.960938 -33.875" transform="translate(284.373 34.425)"/></g></g></g></g><g fill="#FFF"><g><g><path d="M 8.21875 -5.960938 C 7.542969 -5.960938 7.089844 -6.503906 7.226562 -7.179688 L 9.53125 -20.324219 L 16.167969 -20.324219 L 19.015625 -26.332031 L 10.570312 -26.332031 L 11.652344 -32.292969 L 5.691406 -32.292969 L 1.039062 -5.960938 C 0.453125 -2.664062 2.664062 0 5.960938 0 L 14.40625 0 L 15.445312 -5.960938 Z M 8.21875 -5.960938" transform="translate(294.625 34.425)"/></g></g></g><g clip-path="url(#d)"><g fill="#FFF"><g><g><path d="M 0 0 L 4.605469 -26.332031 L 10.570312 -26.332031 L 5.960938 0 Z M 5.960938 -33.875 L 4.96875 -28.273438 L 11.246094 -30.078125 L 11.921875 -33.875 Z M 5.960938 -33.875" transform="translate(312.645 34.425)"/></g></g></g></g><g fill="#FFF"><g><g><path d="M 26.152344 -20.324219 C 26.738281 -23.667969 24.523438 -26.332031 21.183594 -26.332031 L 13.59375 -26.332031 L 10.070312 -23.351562 L 10.570312 -26.332031 L 4.605469 -26.332031 L 0 0 L 5.960938 0 L 9.53125 -20.324219 L 18.96875 -20.324219 C 19.648438 -20.324219 20.054688 -19.828125 19.917969 -19.148438 L 16.574219 0 L 22.582031 0 Z M 26.152344 -20.324219" transform="translate(322.898 34.425)"/></g></g></g><g clip-path="url(#e)"><g fill="#FFF"><g><g><path d="M 28.542969 -26.332031 L 22.539062 -26.332031 L 22.039062 -23.351562 L 19.554688 -26.332031 L 10.570312 -26.332031 C 7.273438 -26.332031 4.15625 -23.667969 3.566406 -20.324219 L 1.039062 -5.960938 C 0.453125 -2.664062 2.664062 0 5.960938 0 L 14.316406 0 L 17.164062 -5.960938 L 8.21875 -5.960938 C 7.542969 -5.960938 7.089844 -6.503906 7.226562 -7.179688 L 9.304688 -19.148438 C 9.441406 -19.828125 10.070312 -20.324219 10.75 -20.324219 L 21.5 -20.324219 L 18.699219 -4.5625 C 18.292969 -2.304688 17.296875 -0.136719 15.761719 1.714844 L 11.652344 5.734375 L 15.175781 9.980469 L 19.738281 5.464844 L 19.871094 5.328125 L 19.964844 5.195312 C 22.492188 2.304688 24.117188 -1.039062 24.707031 -4.5625 Z M 28.542969 -26.332031" transform="translate(349.77 34.425)"/></g></g></g></g></svg>